<svg width="24" height="24" viewBox="0 0 24 24" fill="none" xmlns="http://www.w3.org/2000/svg">
<g clip-path="url(#clip0_11_541)">
<path d="M12.868 12.9C12.9842 12.7839 13.0764 12.646 13.1394 12.4943C13.2023 12.3426 13.2348 12.1799 13.2349 12.0157C13.2349 11.8514 13.2027 11.6887 13.1399 11.5369C13.0771 11.3851 12.9851 11.2472 12.869 11.131C12.7529 11.0148 12.6151 10.9225 12.4633 10.8596C12.3116 10.7966 12.149 10.7642 11.9847 10.7641C11.8204 10.764 11.6577 10.7963 11.5059 10.859C11.3541 10.9218 11.2162 11.0139 11.1 11.13C10.9839 11.2462 10.8918 11.3841 10.8291 11.5359C10.7663 11.6877 10.734 11.8504 10.7341 12.0147C10.7343 12.3464 10.8663 12.6645 11.101 12.899C11.3357 13.1334 11.6539 13.265 11.9857 13.2648C12.3174 13.2647 12.6355 13.1327 12.87 12.898M15.138 14.032C14.931 14.549 14.518 14.956 13.999 15.156L5.61998 18.38L8.84298 10.003C9.04298 9.48298 9.44998 9.06997 9.96698 8.86397L18.584 5.41697L15.137 14.034L15.138 14.032ZM20.486 3.51297C15.8 -1.17303 8.20198 -1.17303 3.51598 3.51297C-1.17102 8.19997 -1.17102 15.798 3.51598 20.484C8.20198 25.17 15.8 25.17 20.486 20.484C25.172 15.798 25.172 8.19897 20.486 3.51297Z" fill="#111111"/>
</g>
<defs>
<clipPath id="clip0_11_541">
<rect width="24" height="24" fill="white"/>
</clipPath>
</defs>
</svg>
