<svg width="24" height="24" viewBox="0 0 24 24" fill="none" xmlns="http://www.w3.org/2000/svg">
<g clip-path="url(#clip0_11_672)">
<path d="M21 12H14.5V5.5H20C20.551 5.5 21 5.949 21 6.5V12ZM21 20C21 20.551 20.551 21 20 21H6.5C5.949 21 5.5 20.551 5.5 20V14.5H21V20ZM4.75 7.5C4.55109 7.5 4.36032 7.42098 4.21967 7.28033C4.07902 7.13968 4 6.94891 4 6.75V5.5H2.75C2.55109 5.5 2.36032 5.42098 2.21967 5.28033C2.07902 5.13968 2 4.94891 2 4.75C2 4.55109 2.07902 4.36032 2.21967 4.21967C2.36032 4.07902 2.55109 4 2.75 4H4V2.75C4 2.55109 4.07902 2.36032 4.21967 2.21967C4.36032 2.07902 4.55109 2 4.75 2C4.94891 2 5.13968 2.07902 5.28033 2.21967C5.42098 2.36032 5.5 2.55109 5.5 2.75V4H6.75C6.94891 4 7.13968 4.07902 7.28033 4.21967C7.42098 4.36032 7.5 4.55109 7.5 4.75C7.5 4.94891 7.42098 5.13968 7.28033 5.28033C7.13968 5.42098 6.94891 5.5 6.75 5.5H5.5V6.75C5.5 6.94891 5.42098 7.13968 5.28033 7.28033C5.13968 7.42098 4.94891 7.5 4.75 7.5ZM9.424 5.5H12V12H5.5V9.424C6.48423 9.26712 7.39368 8.80316 8.09842 8.09842C8.80316 7.39368 9.26712 6.48423 9.424 5.5ZM20 2.5H8.909C8.105 1.018 6.555 0 4.75 0C3.49022 0 2.28204 0.500445 1.39124 1.39124C0.500445 2.28204 0 3.49022 0 4.75C0 6.555 1.018 8.105 2.5 8.909V20C2.5 21.0609 2.92143 22.0783 3.67157 22.8284C4.42172 23.5786 5.43913 24 6.5 24H20C21.0609 24 22.0783 23.5786 22.8284 22.8284C23.5786 22.0783 24 21.0609 24 20V6.5C24 5.43913 23.5786 4.42172 22.8284 3.67157C22.0783 2.92143 21.0609 2.5 20 2.5Z" fill="#111111"/>
</g>
<defs>
<clipPath id="clip0_11_672">
<rect width="24" height="24" fill="white"/>
</clipPath>
</defs>
</svg>
